{
  "accessors": [
    {
      "bufferView": 2,
      "componentType": 5126,
      "count": 65532,
      "max": [
        408.6576232910156,
        183.77886962890625,
        -260.754638671875
      ],
      "min": [
        195.0374755859375,
        -188.95616149902344,
        -312.86383056640625
      ],
      "type": "VEC3"
    },
    {
      "bufferView": 2,
      "byteOffset": 786384,
      "componentType": 5126,
      "count": 65532,
      "max": [
        0.9999942183494568,
        0.9999863505363464,
        0.9999995827674866
      ],
      "min": [
        -0.9999897480010986,
        -0.9999672770500183,
        -1.0
      ],
      "type": "VEC3"
    },
    {
      "bufferView": 1,
      "componentType": 5126,
      "count": 65532,
      "max": [
        0.9999872446060181,
        0.9708106517791748
      ],
      "min": [
        1.0939082130789757e-05,
        0.21098601818084717
      ],
      "type": "VEC2"
    },
    {
      "bufferView": 0,
      "componentType": 5125,
      "count": 320712,
      "type": "SCALAR"
    },
    {
      "bufferView": 2,
      "byteOffset": 1572768,
      "componentType": 5126,
      "count": 65532,
      "max": [
        404.5437316894531,
        183.75015258789063,
        -258.04522705078125
      ],
      "min": [
        -40.53620147705078,
        -189.0802459716797,
        -312.9031982421875
      ],
      "type": "VEC3"
    },
    {
      "bufferView": 2,
      "byteOffset": 2359152,
      "componentType": 5126,
      "count": 65532,
      "max": [
        0.9999890327453613,
        0.999968945980072,
        0.9999998211860657
      ],
      "min": [
        -0.9999403357505798,
        -0.9999866485595703,
        -1.0
      ],
      "type": "VEC3"
    },
    {
      "bufferView": 1,
      "byteOffset": 524256,
      "componentType": 5126,
      "count": 65532,
      "max": [
        0.9997528791427612,
        0.9673498868942261
      ],
      "min": [
        0.00033915098174475133,
        0.2043999433517456
      ],
      "type": "VEC2"
    },
    {
      "bufferView": 0,
      "byteOffset": 1282848,
      "componentType": 5125,
      "count": 317580,
      "type": "SCALAR"
    },
    {
      "bufferView": 2,
      "byteOffset": 3145536,
      "componentType": 5126,
      "count": 65532,
      "max": [
        111.3580093383789,
        183.67559814453125,
        -258.2176513671875
      ],
      "min": [
        -44.98059844970703,
        -189.0802459716797,
        -312.94287109375
      ],
      "type": "VEC3"
    },
    {
      "bufferView": 2,
      "byteOffset": 3931920,
      "componentType": 5126,
      "count": 65532,
      "max": [
        0.9999985694885254,
        0.999882698059082,
        0.9999977946281433
      ],
      "min": [
        -0.9999992251396179,
        -0.9999755620956421,
        -0.9999924898147583
      ],
      "type": "VEC3"
    },
    {
      "bufferView": 1,
      "byteOffset": 1048512,
      "componentType": 5126,
      "count": 65532,
      "max": [
        0.5308243632316589,
        0.8118889927864075
      ],
      "min": [
        0.4592444598674774,
        0.2043999433517456
      ],
      "type": "VEC2"
    },
    {
      "bufferView": 0,
      "byteOffset": 2553168,
      "componentType": 5125,
      "count": 339402,
      "type": "SCALAR"
    },
    {
      "bufferView": 2,
      "byteOffset": 4718304,
      "componentType": 5126,
      "count": 65532,
      "max": [
        451.6576232910156,
        204.38070678710938,
        -258.72998046875
      ],
      "min": [
        -85.88965606689453,
        -189.0026397705078,
        -325.7437438964844
      ],
      "type": "VEC3"
    },
    {
      "bufferView": 2,
      "byteOffset": 5504688,
      "componentType": 5126,
      "count": 65532,
      "max": [
        1.0,
        1.0,
        1.0
      ],
      "min": [
        -1.0,
        -1.0,
        -1.0
      ],
      "type": "VEC3"
    },
    {
      "bufferView": 1,
      "byteOffset": 1572768,
      "componentType": 5126,
      "count": 65532,
      "max": [
        1.0,
        1.0
      ],
      "min": [
        0.0,
        0.0
      ],
      "type": "VEC2"
    },
    {
      "bufferView": 0,
      "byteOffset": 3910776,
      "componentType": 5125,
      "count": 294177,
      "type": "SCALAR"
    },
    {
      "bufferView": 2,
      "byteOffset": 6291072,
      "componentType": 5126,
      "count": 65533,
      "max": [
        409.3681945800781,
        183.76312255859375,
        -260.76995849609375
      ],
      "min": [
        195.11773681640625,
        -189.0643768310547,
        -312.75054931640625
      ],
      "type": "VEC3"
    },
    {
      "bufferView": 2,
      "byteOffset": 7077468,
      "componentType": 5126,
      "count": 65533,
      "max": [
        0.9999942183494568,
        0.9999919533729553,
        0.9999992847442627
      ],
      "min": [
        -0.9999962449073792,
        -0.9998926520347595,
        -0.9999961853027344
      ],
      "type": "VEC3"
    },
    {
      "bufferView": 1,
      "byteOffset": 2097024,
      "componentType": 5126,
      "count": 65533,
      "max": [
        0.9999872446060181,
        0.969792902469635
      ],
      "min": [
        3.41487793775741e-05,
        0.2078315019607544
      ],
      "type": "VEC2"
    },
    {
      "bufferView": 0,
      "byteOffset": 5087484,
      "componentType": 5125,
      "count": 312555,
      "type": "SCALAR"
    },
    {
      "bufferView": 2,
      "byteOffset": 7863864,
      "componentType": 5126,
      "count": 6636,
      "max": [
        404.0294494628906,
        183.47201538085938,
        -261.6434326171875
      ],
      "min": [
        196.2103271484375,
        -182.9107208251953,
        -312.80255126953125
      ],
      "type": "VEC3"
    },
    {
      "bufferView": 2,
      "byteOffset": 7943496,
      "componentType": 5126,
      "count": 6636,
      "max": [
        0.9997384548187256,
        0.8466834425926208,
        0.999789834022522
      ],
      "min": [
        -0.9979423880577087,
        -0.9994074106216431,
        -0.9999518394470215
      ],
      "type": "VEC3"
    },
    {
      "bufferView": 1,
      "byteOffset": 2621288,
      "componentType": 5126,
      "count": 6636,
      "max": [
        0.9999560117721558,
        0.9684886932373047
      ],
      "min": [
        9.708867582958192e-05,
        0.21112680435180664
      ],
      "type": "VEC2"
    },
    {
      "bufferView": 0,
      "byteOffset": 6337704,
      "componentType": 5125,
      "count": 19086,
      "type": "SCALAR"
    }
  ],
  "asset": {
    "extras": {
      "author": "awkwurdted (https://sketchfab.com/awkwurdted)",
      "license": "CC-BY-4.0 (http://creativecommons.org/licenses/by/4.0/)",
      "source": "https://sketchfab.com/3d-models/indoor-curtain-e3fab0be1cfb4e3c918620587b5b1b00",
      "title": "Indoor Curtain"
    },
    "generator": "Sketchfab-16.35.0",
    "version": "2.0"
  },
  "bufferViews": [
    {
      "buffer": 0,
      "byteLength": 6414048,
      "name": "floatBufferViews",
      "target": 34963
    },
    {
      "buffer": 0,
      "byteLength": 2674376,
      "byteOffset": 6414048,
      "byteStride": 8,
      "name": "floatBufferViews",
      "target": 34962
    },
    {
      "buffer": 0,
      "byteLength": 8023128,
      "byteOffset": 9088424,
      "byteStride": 12,
      "name": "floatBufferViews",
      "target": 34962
    }
  ],
  "buffers": [
    {
      "byteLength": 17111552,
      "uri": "scene.bin"
    }
  ],
  "materials": [
    {
      "doubleSided": true,
      "name": "Scene_-_Root",
      "pbrMetallicRoughness": {
        "metallicFactor": 0.0,
        "roughnessFactor": 0.6
      }
    }
  ],
  "meshes": [
    {
      "name": "Null__0",
      "primitives": [
        {
          "attributes": {
            "NORMAL": 1,
            "POSITION": 0,
            "TEXCOORD_0": 2
          },
          "indices": 3,
          "material": 0,
          "mode": 4
        }
      ]
    },
    {
      "name": "Null__0",
      "primitives": [
        {
          "attributes": {
            "NORMAL": 5,
            "POSITION": 4,
            "TEXCOORD_0": 6
          },
          "indices": 7,
          "material": 0,
          "mode": 4
        }
      ]
    },
    {
      "name": "Null__0",
      "primitives": [
        {
          "attributes": {
            "NORMAL": 9,
            "POSITION": 8,
            "TEXCOORD_0": 10
          },
          "indices": 11,
          "material": 0,
          "mode": 4
        }
      ]
    },
    {
      "name": "Null__0",
      "primitives": [
        {
          "attributes": {
            "NORMAL": 13,
            "POSITION": 12,
            "TEXCOORD_0": 14
          },
          "indices": 15,
          "material": 0,
          "mode": 4
        }
      ]
    },
    {
      "name": "Null__0",
      "primitives": [
        {
          "attributes": {
            "NORMAL": 17,
            "POSITION": 16,
            "TEXCOORD_0": 18
          },
          "indices": 19,
          "material": 0,
          "mode": 4
        }
      ]
    },
    {
      "name": "Null__0",
      "primitives": [
        {
          "attributes": {
            "NORMAL": 21,
            "POSITION": 20,
            "TEXCOORD_0": 22
          },
          "indices": 23,
          "material": 0,
          "mode": 4
        }
      ]
    }
  ],
  "nodes": [
    {
      "children": [
        1
      ],
      "matrix": [
        1.0,
        0.0,
        0.0,
        0.0,
        0.0,
        2.220446049250313e-16,
        -1.0,
        0.0,
        0.0,
        1.0,
        2.220446049250313e-16,
        0.0,
        0.0,
        0.0,
        0.0,
        1.0
      ],
      "name": "Sketchfab_model"
    },
    {
      "children": [
        2
      ],
      "matrix": [
        0.009999999776482582,
        0.0,
        0.0,
        0.0,
        0.0,
        0.0,
        0.009999999776482582,
        0.0,
        0.0,
        -0.009999999776482582,
        0.0,
        0.0,
        0.0,
        0.0,
        0.0,
        1.0
      ],
      "name": "23766341897747dd83823583720fa644.fbx"
    },
    {
      "children": [
        3
      ],
      "name": "RootNode"
    },
    {
      "children": [
        4,
        5,
        6,
        7,
        8,
        9
      ],
      "matrix": [
        1.0,
        0.0,
        0.0,
        0.0,
        0.0,
        1.0,
        0.0,
        0.0,
        0.0,
        0.0,
        1.0,
        0.0,
        183.23245239257813,
        189.91775512695313,
        -309.4649658203125,
        1.0
      ],
      "name": "Null"
    },
    {
      "mesh": 0,
      "name": "Null__0"
    },
    {
      "mesh": 1,
      "name": "Null__0"
    },
    {
      "mesh": 2,
      "name": "Null__0"
    },
    {
      "mesh": 3,
      "name": "Null__0"
    },
    {
      "mesh": 4,
      "name": "Null__0"
    },
    {
      "mesh": 5,
      "name": "Null__0"
    }
  ],
  "scene": 0,
  "scenes": [
    {
      "name": "Sketchfab_Scene",
      "nodes": [
        0
      ]
    }
  ]
}
